<?xml version="1.0" encoding="UTF-8"?>
<svg xmlns="http://www.w3.org/2000/svg" viewBox="0 0 980 720" font-family="ui-sans-serif, system-ui, sans-serif">
  <defs>
    <marker id="arrow" viewBox="0 0 10 10" refX="9" refY="5" markerWidth="7" markerHeight="7" orient="auto">
      <path d="M0,0 L10,5 L0,10 Z" fill="#334155"/>
    </marker>
    <marker id="arrow-dashed" viewBox="0 0 10 10" refX="9" refY="5" markerWidth="7" markerHeight="7" orient="auto">
      <path d="M0,0 L10,5 L0,10 Z" fill="#64748b"/>
    </marker>
    <style>
      .title  { font-size: 22px; font-weight: 700; fill: #0f172a; }
      .sub    { font-size: 12px; fill: #475569; }
      .box-l  { font-size: 14px; font-weight: 600; fill: #0f172a; }
      .box-s  { font-size: 11px; fill: #334155; }
      .lane   { font-size: 12px; font-weight: 600; fill: #64748b; letter-spacing: .08em; }
      .edge   { stroke: #334155; stroke-width: 1.4; fill: none; }
      .edge-d { stroke: #64748b; stroke-width: 1.2; fill: none; stroke-dasharray: 4 3; }
    </style>
  </defs>

  <text x="32" y="36" class="title">kafko — v0.1 component map</text>
  <text x="32" y="56" class="sub">In-process log with Kafka-like semantics · single-writer-per-partition actor · no global hot-path lock</text>

  <!-- Lane labels -->
  <text x="32"  y="92"  class="lane">API HANDLES</text>
  <text x="32"  y="232" class="lane">BROKER CORE</text>
  <text x="32"  y="402" class="lane">PARTITION RUNTIME (one per topic-partition)</text>
  <text x="32"  y="582" class="lane">STORAGE (on disk)</text>

  <!-- API handles row -->
  <g>
    <rect x="160" y="104" width="170" height="70" rx="10" fill="#eff6ff" stroke="#3b82f6" stroke-width="1.5"/>
    <text x="245" y="128" text-anchor="middle" class="box-l">Producer</text>
    <text x="245" y="148" text-anchor="middle" class="box-s">send(topic, key, value)</text>
    <text x="245" y="164" text-anchor="middle" class="box-s">→ Offset (awaits durability)</text>

    <rect x="400" y="104" width="170" height="70" rx="10" fill="#ecfeff" stroke="#06b6d4" stroke-width="1.5"/>
    <text x="485" y="128" text-anchor="middle" class="box-l">Consumer</text>
    <text x="485" y="148" text-anchor="middle" class="box-s">Stream&lt;Record&gt;</text>
    <text x="485" y="164" text-anchor="middle" class="box-s">manual offset commit</text>

    <rect x="640" y="104" width="170" height="70" rx="10" fill="#fef3c7" stroke="#d97706" stroke-width="1.5"/>
    <text x="725" y="128" text-anchor="middle" class="box-l">Admin</text>
    <text x="725" y="148" text-anchor="middle" class="box-s">create / list / delete</text>
    <text x="725" y="164" text-anchor="middle" class="box-s">topic</text>
  </g>

  <!-- Broker core -->
  <rect x="160" y="244" width="650" height="120" rx="12" fill="#f1f5f9" stroke="#475569" stroke-width="1.5"/>
  <text x="485" y="268" text-anchor="middle" class="box-l">Kafko (Arc&lt;KafkoInner&gt;)</text>
  <text x="485" y="286" text-anchor="middle" class="sub">cloning a handle is free · cheap fan-out to many tasks</text>

  <rect x="184" y="302" width="190" height="50" rx="8" fill="#ffffff" stroke="#475569"/>
  <text x="279" y="322" text-anchor="middle" class="box-l">Topic registry</text>
  <text x="279" y="340" text-anchor="middle" class="box-s">RwLock — touched on admin only</text>

  <rect x="390" y="302" width="200" height="50" rx="8" fill="#ffffff" stroke="#475569"/>
  <text x="490" y="322" text-anchor="middle" class="box-l">Partition router</text>
  <text x="490" y="340" text-anchor="middle" class="box-s">HashMap&lt;(topic,part), Handle&gt;</text>

  <rect x="606" y="302" width="190" height="50" rx="8" fill="#ffffff" stroke="#475569"/>
  <text x="701" y="322" text-anchor="middle" class="box-l">Retention task</text>
  <text x="701" y="340" text-anchor="middle" class="box-s">age + size based, periodic</text>

  <!-- Partition runtime (two stacks shown) -->
  <g>
    <rect x="120" y="414" width="340" height="150" rx="12" fill="#ecfdf5" stroke="#059669" stroke-width="1.5"/>
    <text x="290" y="438" text-anchor="middle" class="box-l">Partition writer task — orders-0</text>
    <text x="290" y="455" text-anchor="middle" class="sub">SINGLE owner of active segment</text>

    <rect x="140" y="468" width="135" height="36" rx="6" fill="#ffffff" stroke="#059669"/>
    <text x="207.5" y="490" text-anchor="middle" class="box-s">mpsc inbox</text>

    <rect x="290" y="468" width="160" height="36" rx="6" fill="#ffffff" stroke="#059669"/>
    <text x="370" y="490" text-anchor="middle" class="box-s">HWM watch&lt;u64&gt;</text>

    <rect x="140" y="514" width="310" height="36" rx="6" fill="#ffffff" stroke="#059669"/>
    <text x="295" y="536" text-anchor="middle" class="box-s">Log: codec · segments · sparse index · recovery</text>
  </g>

  <g>
    <rect x="500" y="414" width="340" height="150" rx="12" fill="#ecfdf5" stroke="#059669" stroke-width="1.5"/>
    <text x="670" y="438" text-anchor="middle" class="box-l">Partition writer task — orders-1</text>
    <text x="670" y="455" text-anchor="middle" class="sub">SINGLE owner of active segment</text>

    <rect x="520" y="468" width="135" height="36" rx="6" fill="#ffffff" stroke="#059669"/>
    <text x="587.5" y="490" text-anchor="middle" class="box-s">mpsc inbox</text>

    <rect x="670" y="468" width="160" height="36" rx="6" fill="#ffffff" stroke="#059669"/>
    <text x="750" y="490" text-anchor="middle" class="box-s">HWM watch&lt;u64&gt;</text>

    <rect x="520" y="514" width="310" height="36" rx="6" fill="#ffffff" stroke="#059669"/>
    <text x="675" y="536" text-anchor="middle" class="box-s">Log: codec · segments · sparse index · recovery</text>
  </g>

  <!-- Storage row -->
  <g>
    <rect x="160" y="594" width="260" height="90" rx="10" fill="#fff7ed" stroke="#c2410c" stroke-width="1.5"/>
    <text x="290" y="616" text-anchor="middle" class="box-l">data/orders-0/</text>
    <text x="290" y="636" text-anchor="middle" class="box-s">00000000.log · 00000000.index</text>
    <text x="290" y="652" text-anchor="middle" class="box-s">00010000.log · 00010000.index</text>
    <text x="290" y="672" text-anchor="middle" class="box-s">record: [len|crc32|ts|klen|k|vlen|v]</text>

    <rect x="550" y="594" width="260" height="90" rx="10" fill="#fff7ed" stroke="#c2410c" stroke-width="1.5"/>
    <text x="680" y="616" text-anchor="middle" class="box-l">data/orders-1/</text>
    <text x="680" y="636" text-anchor="middle" class="box-s">00000000.log · 00000000.index</text>
    <text x="680" y="652" text-anchor="middle" class="box-s">00010000.log · 00010000.index</text>
    <text x="680" y="672" text-anchor="middle" class="box-s">recovery: CRC scan + torn-tail truncate</text>
  </g>

  <!-- Edges: handles → core -->
  <path class="edge" d="M245 174 L245 244" marker-end="url(#arrow)"/>
  <path class="edge" d="M485 174 L485 244" marker-end="url(#arrow)"/>
  <path class="edge" d="M725 174 L725 244" marker-end="url(#arrow)"/>

  <!-- Edges: core → partition tasks -->
  <path class="edge" d="M390 364 C 360 390, 320 395, 290 414" marker-end="url(#arrow)"/>
  <path class="edge" d="M590 364 C 620 390, 650 395, 670 414" marker-end="url(#arrow)"/>

  <!-- Edges: partition tasks → disk -->
  <path class="edge" d="M290 564 L290 594" marker-end="url(#arrow)"/>
  <path class="edge" d="M670 564 L670 594" marker-end="url(#arrow)"/>

  <!-- Consumer back-pressure / HWM notify (dashed, returning up) -->
  <path class="edge-d" d="M370 468 C 470 380, 470 220, 485 174" marker-end="url(#arrow-dashed)"/>
  <text x="455" y="240" class="box-s" fill="#64748b">HWM notify → consumer wakes</text>

  <!-- Legend -->
  <g transform="translate(32,690)">
    <rect x="0" y="-12" width="14" height="10" fill="#eff6ff" stroke="#3b82f6"/>
    <text x="20" y="-3" class="box-s">API handle</text>
    <rect x="110" y="-12" width="14" height="10" fill="#f1f5f9" stroke="#475569"/>
    <text x="130" y="-3" class="box-s">broker core</text>
    <rect x="225" y="-12" width="14" height="10" fill="#ecfdf5" stroke="#059669"/>
    <text x="245" y="-3" class="box-s">partition actor (single writer)</text>
    <rect x="430" y="-12" width="14" height="10" fill="#fff7ed" stroke="#c2410c"/>
    <text x="450" y="-3" class="box-s">on-disk log</text>
    <line x1="540" y1="-7" x2="580" y2="-7" class="edge-d" marker-end="url(#arrow-dashed)"/>
    <text x="590" y="-3" class="box-s">notify / read path</text>
  </g>
</svg>
